<?xml version="1.0" encoding="UTF-8"?>
<svg width="20px" height="15px" viewBox="0 0 20 15" version="1.1" xmlns="http://www.w3.org/2000/svg" xmlns:xlink="http://www.w3.org/1999/xlink">
    <!-- Generator: Sketch 49 (51002) - http://www.bohemiancoding.com/sketch -->
    <title>ic_format_list_bulleted_black_24px</title>
    <desc>Created with Sketch.</desc>
    <defs></defs>
    <g id="Page-1" stroke="none" stroke-width="1" fill="none" fill-rule="evenodd">
        <g id="Artboard" transform="translate(-1.000000, -4.000000)">
            <g id="ic_format_list_bulleted_black_24px">
                <path d="M7,19 L21,19 L21,17 L7,17 L7,19 Z M7,13 L21,13 L21,11 L7,11 L7,13 Z M7,5 L7,7 L21,7 L21,5 L7,5 Z" id="Shape" fill="#000000" fill-rule="nonzero"></path>
                <polyline id="Path-2" stroke="#000000" points="2 6.27381906 3.38548115 8 6 4"></polyline>
                <polyline id="Path-2-Copy" stroke="#000000" points="2 11.2738191 3.38548115 13 6 9"></polyline>
                <polyline id="Path-2-Copy-2" stroke="#000000" points="2 17.2738191 3.38548115 19 6 15"></polyline>
                <polygon id="Shape" points="0 0 24 0 24 24 0 24"></polygon>
            </g>
        </g>
    </g>
</svg>