<?xml version="1.0" encoding="UTF-8"?>
<svg width="24px" height="24px" viewBox="0 0 24 24" version="1.1" xmlns="http://www.w3.org/2000/svg" xmlns:xlink="http://www.w3.org/1999/xlink">
    <!-- Generator: Sketch 49 (51002) - http://www.bohemiancoding.com/sketch -->
    <title>Artboard</title>
    <desc>Created with Sketch.</desc>
    <defs></defs>
    <g id="Page-1" stroke="none" stroke-width="1" fill="none" fill-rule="evenodd">
        <g id="Artboard">
            <g id="Group" transform="translate(-1.000000, -1.000000)">
                <path d="M-0.0966690956,16.9447674 L15.9033309,16.9447674 L15.9033309,20.9447674 L-0.0966690956,20.9447674 C-0.586252429,20.3129314 -0.831044096,19.6462648 -0.831044096,18.9447674 C-0.831044096,18.24327 -0.586252429,17.5766033 -0.0966690956,16.9447674 Z" id="Rectangle" fill="#894B0D" transform="translate(7.536143, 18.944767) rotate(126.000000) translate(-7.536143, -18.944767) "></path>
                <path d="M10.9033309,16.9447674 L26.9033309,16.9447674 L26.9033309,20.9447674 L10.9033309,20.9447674 C10.4137476,20.3129314 10.1689559,19.6462648 10.1689559,18.9447674 C10.1689559,18.24327 10.4137476,17.5766033 10.9033309,16.9447674 Z" id="Rectangle-Copy" fill="#894B0D" transform="translate(18.536143, 18.944767) scale(-1, 1) rotate(126.000000) translate(-18.536143, -18.944767) "></path>
                <path d="M3.65148068,17.5770425 L19.6514807,17.5770425 L19.6514807,21.5770425 L3.65148068,21.5770425 C3.16189735,20.9452065 2.91710568,20.2785399 2.91710568,19.5770425 C2.91710568,18.8755451 3.16189735,18.2088784 3.65148068,17.5770425 Z" id="Rectangle-Copy-2" fill="#5C340B" transform="translate(11.284293, 19.577042) scale(-1, 1) rotate(81.000000) translate(-11.284293, -19.577042) "></path>
                <path d="M4.53458453,5.27238442 C7.53661634,5.62217493 9.92247724,6.4399477 11.6921672,7.72570274 C13.4511009,7.57303503 10.7784498,5.32946591 11.7800956,3.95081879 C13.9935682,5.55900077 16.0347708,6.60806966 17.9037033,7.09802546 L20.8596331,8.08259082 L22.5345845,9.29951429 L22.5055018,14.5352994 C19.557621,13.9639726 17.5448774,14.4199081 16.4672711,15.903106 C15.506954,17.2248691 15.3978011,19.3479619 16.1398124,22.2723844 C14.2765898,22.2723844 12.4133672,22.2723844 10.5501446,22.2723844 C8.54495788,22.2723844 6.55191537,20.3302511 4.57101703,16.4459844 L9.2752706,17.2850029 L4.53458453,11.9949836 L8.37196583,10.0215224 L4.53458453,5.27238442 Z" id="Rectangle-2" fill="#BE1313" transform="translate(13.534585, 13.111602) rotate(54.000000) translate(-13.534585, -13.111602) "></path>
            </g>
        </g>
    </g>
</svg>