<?xml version="1.0" encoding="UTF-8"?>
<svg width="24px" height="13px" viewBox="0 0 24 13" version="1.1" xmlns="http://www.w3.org/2000/svg" xmlns:xlink="http://www.w3.org/1999/xlink">
    <!-- Generator: Sketch 48.2 (47327) - http://www.bohemiancoding.com/sketch -->
    <title>ic_border_all_black_24px</title>
    <desc>Created with Sketch.</desc>
    <defs></defs>
    <g id="Page-1" stroke="none" stroke-width="1" fill="none" fill-rule="evenodd">
        <g id="ic_border_all_black_24px" transform="translate(0.000000, -5.000000)">
            <path d="M5,5 L5,18 L19,18 L19,5 L5,5 Z M11,16 L7,16 L7,7 L11,7 L11,16 Z M17,16 L13,16 L13,7 L17,7 L17,16 Z M5,11.5 L-8.8817842e-16,14 L0,9 L5,11.5 Z M19,11.5 L24,9 L24,14 L19,11.5 Z" id="Shape" fill="#000000" fill-rule="nonzero"></path>
            <polygon id="Shape" points="0 0 24 0 24 24 0 24"></polygon>
            <rect id="Rectangle" fill="#FF0000" x="13" y="7" width="4" height="9"></rect>
            <rect id="Rectangle-Copy" fill="#FF0000" x="7" y="7" width="4" height="9"></rect>
        </g>
    </g>
</svg>