<?xml version="1.0" encoding="UTF-8"?>
<svg width="23px" height="23px" viewBox="0 0 23 23" version="1.1" xmlns="http://www.w3.org/2000/svg" xmlns:xlink="http://www.w3.org/1999/xlink">
    <!-- Generator: Sketch 48.2 (47327) - http://www.bohemiancoding.com/sketch -->
    <title>ic_border_all_black_24px_split</title>
    <desc>Created with Sketch.</desc>
    <defs></defs>
    <g id="Page-1" stroke="none" stroke-width="1" fill="none" fill-rule="evenodd">
        <g id="ic_border_all_black_24px_split">
            <path d="M5,5 L5,18 L18,18 L18,5 L5,5 Z M11,11 L7,11 L7,7 L11,7 L11,11 Z M11,16 L7,16 L7,12 L11,12 L11,16 Z M16,11 L12,11 L12,7 L16,7 L16,11 Z M16,16 L12,16 L12,12 L16,12 L16,16 Z M5,11.5 L-1.77635684e-15,14 L-1.77635684e-15,9 L5,11.5 Z M11.5,5 L9,-5.8201672e-16 L14,-8.8817842e-16 L11.5,5 Z M11.5,18 L9,23 L14,23 L11.5,18 Z M18,11.5 L23,9 L23,14 L18,11.5 Z" id="Shape" fill="#000000" fill-rule="nonzero"></path>
            <polygon id="Shape" points="0 0 24 0 24 24 0 24"></polygon>
        </g>
    </g>
</svg>