<?xml version="1.0" encoding="utf-8"?>
<svg viewBox="0 0 500 500" xmlns="http://www.w3.org/2000/svg">
  <defs>
    <pattern id="pattern-0" x="0" y="0" width="20" height="20" patternUnits="userSpaceOnUse" viewBox="0 0 100 100">
      <path d="M 0 0 L 50 0 L 50 100 L 0 100 Z" style="fill: black;"/>
    </pattern>
  </defs>
  <rect x="25.05" y="626.004" width="402" height="43.783" transform="matrix(1, 0, 0, 1.000001, 0, -175.373148)"/>
  <path d="M 478.068 370.062 L 426.565 453.202 L 426.772 493.231 L 477.208 410.939 L 478.068 370.062 Z" style="stroke: black; fill: rgb(132, 132, 132);"/>
  <path d="M 93.498 368.813 L 25.683 452.844 L 427.053 453.109 L 478.046 369.005 L 93.498 368.813 Z" style="stroke: black; fill: rgb(216, 216, 216);"/>
  <g transform="matrix(1, 0, 0, 1, 7.129097, 157.745102)">
    <path d="M 259.799 148.497 L 259.802 148.497 L 259.802 251.376 L 259.796 251.376 C 259.745 252.977 255.378 254.271 249.997 254.271 C 244.585 254.271 240.198 252.962 240.198 251.348 C 240.198 251.308 240.201 251.268 240.206 251.229 L 240.206 148.614 C 240.373 150.185 244.694 151.443 250 151.443 C 255.412 151.443 259.799 150.134 259.799 148.52 C 259.799 148.512 259.799 148.505 259.799 148.497 Z"/>
    <ellipse style="fill: rgb(216, 216, 216);" cx="250" cy="148.52" rx="9.799" ry="2.923"/>
  </g>
  <g transform="matrix(1.157577, 0, 0, 1.087123, -29.310127, -33.252464)">
    <rect x="45.928" y="43.867" width="400.223" height="337.804" style="fill: rgb(158, 158, 158);"/>
    <rect style="fill: rgb(216, 216, 216);" x="57.861" y="57.636" width="375.104" height="311.184"/>
  </g>
</svg>